PathFileType	4	(X/Y/Z)	D:\Share\Shared_Data\Ergonomics\Sit To Stand Pertubation\S3\Perturbed.trc
DataRate	CameraRate	NumFrames	NumMarkers	Units	OrigDataRate	OrigDataStartFrame	OrigNumFrames	
100	100	16	18	m	100	8546	221
Frame#	Time	R_ASIS			R_Pelvis			V_Sacral			L_Pelvis			L_ASIS			Clavical			R_Acromium			L_Acromium			Sternum			Torso			R_Thigh_Med			R_Thigh_Lat			R_Thigh			R_Shank_Med			R_Shank_Lat			R_Shank			R_Heel			R_Toe			
		X1	Y1	Z1	X2	Y2	Z2	X3	Y3	Z3	X4	Y4	Z4	X5	Y5	Z5	X6	Y6	Z6	X7	Y7	Z7	X8	Y8	Z8	X9	Y9	Z9	X10	Y10	Z10	X11	Y11	Z11	X12	Y12	Z12	X13	Y13	Z13	X14	Y14	Z14	X15	Y15	Z15	X16	Y16	Z16	X17	Y17	Z17	X18	Y18	Z18	

8546	85.45	0.32182684	0.93439618	0.15176147	0.21392598	0.94071362	0.20321815	0.11195776	0.96946436	0.0093339853	0.23473506	0.95383569	-0.18960115	0.33298624	0.93083118	-0.12461897	0.33868634	1.3709858	0.02457012	0.29873578	1.4269878	0.18910667	0.30191818	1.4400609	-0.12458646	0.36252722	1.2967343	0.023720552	0.34710837	1.3638853	-0.041812344	0.41295755	0.49023923	0.07191935	0.3480766	0.45476788	0.16037094	0.3841973	0.67172211	0.11722477	0.29418771	0.10627048	0.096077209	0.28068607	0.09413385	0.17772177	0.28845963	0.28148257	0.18466019	0.22199922	0.047407024	0.13373708	0.43908374	0.062716282	0.11907285
8547	85.46	0.32721066	0.93764124	0.15236736	0.21886998	0.94260223	0.20327338	0.11673705	0.9699364	0.0094938507	0.23999355	0.95612268	-0.18936572	0.33859692	0.93435364	-0.12404671	0.33572226	1.3748425	0.0249389	0.29399615	1.4298031	0.18978578	0.29719785	1.4425531	-0.12475771	0.36080698	1.301551	0.02418301	0.34423212	1.3680074	-0.041832661	0.41226749	0.48974524	0.07156562	0.34597244	0.45516953	0.15970082	0.38662296	0.67164655	0.11700705	0.29412015	0.10623634	0.095989265	0.28062668	0.094406639	0.17805721	0.28703714	0.28176166	0.18425479	0.22206613	0.04755476	0.13383281	0.43920996	0.062470745	0.11922837
8548	85.47	0.3324263	0.94051404	0.15297032	0.22367726	0.94413147	0.20336971	0.12142443	0.97008466	0.0096394854	0.2450661	0.95806348	-0.18913383	0.34403473	0.93750623	-0.12348501	0.33288049	1.3780204	0.025266891	0.28943939	1.4320006	0.1904156	0.29272562	1.444389	-0.12488696	0.35914639	1.3055906	0.024659208	0.34143228	1.3713566	-0.041819473	0.41155334	0.48916037	0.07125412	0.34380124	0.45553918	0.1590255	0.38893634	0.67145117	0.1168961	0.29406067	0.10618179	0.095871521	0.28058853	0.09458786	0.17824223	0.28556888	0.28202362	0.18380003	0.22216483	0.04780455	0.13397679	0.43938373	0.062078262	0.11940666
8549	85.48	0.33743524	0.94302203	0.15356578	0.22832741	0.94533423	0.20354239	0.12600303	0.96992035	0.0097584858	0.2499631	0.95964258	-0.18889131	0.34927451	0.94026514	-0.12293412	0.33017178	1.380547	0.025556648	0.28506583	1.4336038	0.19100258	0.28849686	1.4455966	-0.12497732	0.35756714	1.3088589	0.025149208	0.33872806	1.373951	-0.041767925	0.41079807	0.48849612	0.070992592	0.34155707	0.45587949	0.15835773	0.39113147	0.67114191	0.1169011	0.29405426	0.10610444	0.095763489	0.28057538	0.094679131	0.17828688	0.28403873	0.28227032	0.18330037	0.22228781	0.048163891	0.13418143	0.4395921	0.061563347	0.11959363
8550	85.49	0.3422182	0.9451792	0.15415062	0.23280244	0.94624512	0.2038078	0.13045807	0.96945978	0.0098390894	0.25469876	0.96084979	-0.18861165	0.35429538	0.94261096	-0.1223988	0.32760822	1.3824554	0.025811357	0.28087277	1.4346321	0.19155798	0.28450226	1.4462084	-0.12503977	0.35608905	1.3113737	0.025652262	0.33613956	1.3758214	-0.041677113	0.40999118	0.4877627	0.070786705	0.3392529	0.45619113	0.1577187	0.3932034	0.67072919	0.11701727	0.29414175	0.10600335	0.09568795	0.28059512	0.094691689	0.17822101	0.28244141	0.28250192	0.18277237	0.22242349	0.048619831	0.13444844	0.43981741	0.060966904	0.1197738
8551	85.5	0.34677463	0.947005	0.15472307	0.2370892	0.94689911	0.20415527	0.13477708	0.96872614	0.0098757849	0.25928445	0.96168475	-0.18825948	0.35908472	0.94453357	-0.1218869	0.32520251	1.3837841	0.026033777	0.27685568	1.4351047	0.1920954	0.28072894	1.4462611	-0.12509327	0.35472867	1.3131674	0.026166691	0.33368723	1.377011	-0.041549919	0.40913632	0.48696674	0.070642448	0.33692331	0.45647186	0.15713652	0.39515213	0.67022461	0.11722782	0.29433481	0.10588131	0.095651947	0.28064816	0.094640785	0.17808052	0.28078912	0.28271649	0.18224342	0.22255721	0.049126396	0.13475641	0.44003995	0.060340378	0.11993497
8552	85.51	0.3511095	0.94851868	0.15528358	0.24117628	0.94732959	0.20455583	0.13894562	0.96775232	0.009873498	0.26372595	0.96215991	-0.18779294	0.36364203	0.94603571	-0.12140734	0.32296661	1.3845758	0.026225239	0.27300958	1.4350435	0.19262721	0.27716174	1.4457965	-0.12516312	0.35349594	1.3142841	0.026689705	0.33139087	1.3775731	-0.04139349	0.4082562	0.48611295	0.070567047	0.33462607	0.45671613	0.15664267	0.39698459	0.66963922	0.11751012	0.29460617	0.10574577	0.095652054	0.2807204	0.094545128	0.17790262	0.27911658	0.28291013	0.18174976	0.22267374	0.04958905	0.13504393	0.44024103	0.059736183	0.12007157
8553	85.52	0.35522147	0.94973792	0.1558349	0.24505003	0.94756799	0.20497659	0.14294182	0.96657812	0.0098448029	0.26802271	0.96230273	-0.18716725	0.36797675	0.94713501	-0.1209677	0.32091086	1.3848795	0.026384993	0.26932944	1.4344764	0.19316306	0.27378638	1.4448612	-0.12527749	0.35239233	1.3147802	0.027216988	0.32926834	1.3775719	-0.041218994	0.4073952	0.48520914	0.070567284	0.33244153	0.45691647	0.15626613	0.39871591	0.66898462	0.11784198	0.29490472	0.10560683	0.095681778	0.28078876	0.094426834	0.17772504	0.27748267	0.283078	0.18133157	0.22276079	0.049868279	0.13520863	0.4404068	0.05919619	0.12018498
8554	85.53	0.35910098	0.95068085	0.15637999	0.24869235	0.94764337	0.20539114	0.14673712	0.96524634	0.0098012981	0.27216641	0.96215485	-0.18634241	0.3720961	0.94786584	-0.12057202	0.31904373	1.3847488	0.026510899	0.2658114	1.4334417	0.19370985	0.27059174	1.4435076	-0.12546294	0.35141147	1.3147218	0.027742186	0.32733435	1.3770786	-0.041039593	0.40661737	0.48427063	0.070645645	0.33046732	0.45706525	0.15602675	0.40036914	0.66827686	0.11820405	0.29517789	0.10547433	0.095735291	0.28083206	0.094308731	0.17758226	0.27596811	0.2832142	0.18102632	0.2228125	0.049850544	0.13516341	0.4405311	0.058742966	0.12028109
8555	85.54	0.36273181	0.95137018	0.15692044	0.2520822	0.94758276	0.20578288	0.15030222	0.9638017	0.0097482767	0.27613614	0.96177106	-0.18530292	0.37599335	0.94827844	-0.12021888	0.31737039	1.3842443	0.026601274	0.26245367	1.4319888	0.19427258	0.26757217	1.4417965	-0.12574105	0.35054376	1.3141862	0.028256723	0.32559915	1.3761707	-0.040868168	0.40599893	0.48332138	0.07079686	0.32880753	0.45715494	0.15593127	0.40197296	0.66754059	0.1185789	0.29538791	0.10535503	0.095806656	0.2808392	0.094208672	0.17749722	0.27466769	0.28331253	0.18086122	0.22283183	0.049548729	0.13491798	0.44061664	0.058377155	0.12036584
8556	85.55	0.36609409	0.95183508	0.15745502	0.25519922	0.94741113	0.20614368	0.15361066	0.96229181	0.0096871424	0.27989011	0.96121362	-0.18409203	0.37965173	0.94843835	-0.1199008	0.31589182	1.3834325	0.02665671	0.25925742	1.4301831	0.19485252	0.26472821	1.439798	-0.12612569	0.34978049	1.3132594	0.028749762	0.3240676	1.3749283	-0.040715866	0.40561685	0.48239093	0.071006378	0.32755878	0.45717865	0.15597214	0.40355795	0.66680786	0.11894904	0.29551636	0.10525103	0.095887062	0.28081192	0.094135216	0.17747369	0.27367654	0.2833674	0.18084737	0.22282872	0.049101036	0.13457863	0.44067325	0.058080235	0.12044127
8557	85.56	0.36916788	0.95211206	0.15797903	0.25802814	0.94715125	0.20647142	0.15664035	0.96076703	0.0096210213	0.28336127	0.96054694	-0.18283305	0.38305365	0.94842279	-0.11960555	0.31460327	1.3823878	0.026681017	0.25622861	1.4281079	0.19544484	0.26206815	1.4375924	-0.1266197	0.34911407	1.3120355	0.029208559	0.32273816	1.3734352	-0.040590538	0.40553488	0.48150952	0.071250854	0.32679565	0.4571311	0.15612888	0.40515192	0.66611267	0.11929533	0.29556418	0.10516011	0.095963348	0.28076385	0.09408786	0.17749754	0.27307211	0.28337469	0.18097612	0.22281548	0.048667076	0.13426483	0.44071515	0.057822525	0.12050429
8558	85.57	0.37193805	0.95224408	0.15848439	0.26056262	0.94682355	0.20676718	0.15937529	0.95927655	0.0095594139	0.28646631	0.95983173	-0.18169666	0.38618381	0.94831287	-0.11932007	0.31349261	1.3811895	0.026681007	0.25338145	1.4258645	0.19603818	0.25960947	1.4352693	-0.12721027	0.34853604	1.310615	0.0296199	0.32160379	1.3717772	-0.04049464	0.40579111	0.48070291	0.071500168	0.32655844	0.45701099	0.15637244	0.40677484	0.66548535	0.11959553	0.29555276	0.10507737	0.096021011	0.28071533	0.094061287	0.17754553	0.27289597	0.28333423	0.18121809	0.22280255	0.048352741	0.13405005	0.44075684	0.057574303	0.12054778
8559	85.58	0.37439777	0.9522771	0.15896011	0.26280792	0.94644507	0.20703203	0.16180792	0.95786566	0.0095209169	0.28912527	0.95912396	-0.18083121	0.38902597	0.94818292	-0.1190369	0.31254053	1.3799186	0.026664873	0.25073999	1.4235675	0.19661702	0.25738199	1.4329254	-0.12786537	0.34803659	1.3090984	0.029972317	0.32065268	1.3700425	-0.040424118	0.40638846	0.47998816	0.071720718	0.32684473	0.45682248	0.15667046	0.40843524	0.66494849	0.11982398	0.2955174	0.10499732	0.096049141	0.2806832	0.094051117	0.17759538	0.27314084	0.28325119	0.18152638	0.22279662	0.048204014	0.13395892	0.44080978	0.057315517	0.12056403
8560	85.59	0.3765509	0.95225549	0.15939407	0.26478104	0.94602917	0.20726414	0.16394058	0.95657123	0.0095341778	0.29128293	0.9584707	-0.18030499	0.39155713	0.94808698	-0.11876173	0.31172159	1.3786528	0.026640182	0.24833708	1.4213378	0.19716275	0.25542838	1.4306608	-0.12853432	0.34760431	1.3075808	0.030258167	0.31986975	1.3683182	-0.040369316	0.40729266	0.47937213	0.071880333	0.32760782	0.45657773	0.15699141	0.41012744	0.66451373	0.11995477	0.29549109	0.10491581	0.096042542	0.28067505	0.094056534	0.17763187	0.27374869	0.28313614	0.18184627	0.22280067	0.048219307	0.13398013	0.44088098	0.05704126	0.12054931
8561	85.6	0.37841272	0.95221753	0.15977481	0.26650797	0.94558563	0.20745862	0.16578561	0.95542163	0.0096377163	0.29292914	0.95790552	-0.18007732	0.39373734	0.94804413	-0.11852002	0.31100784	1.3774604	0.026613592	0.24621082	1.4192915	0.1976545	0.25379669	1.428571	-0.12915672	0.347228	1.3061459	0.03047489	0.31923746	1.3666863	-0.040316711	0.40843652	0.47885202	0.071954536	0.32876184	0.45629779	0.15730957	0.41183069	0.66418146	0.11996748	0.29549417	0.10483124	0.096002075	0.28069016	0.09407859	0.17764761	0.27462115	0.28300327	0.18212782	0.22281519	0.048354916	0.13407422	0.44097223	0.05676186	0.12050581
